# xmcd
#
# Track frame offsets: 
#        150
#        13167
#        25439
#        37491
#        51541
#        63807
#        76809
#        86403
#        97875
#        110748
#        125425
#        140418
#        155520
#        167567
#        181265
#        193453
#        206168
#        218449
#
# Disc length: 3073 seconds
#
# Revision: 0
# Processed by: cddbd v1.5.1PL0 Copyright (c) Steve Scherf et al.
# Submitted via: ExactAudioCopy v0.95a5
#
DISCID=020bff12
DTITLE=Various Artist - Blue Album
DYEAR=1900
DGENRE=Boogie
TTITLE0=San Antonio ROse
TTITLE1=Oriental Blues
TTITLE2=The Rhumba Boogie
TTITLE3=Golden Rocket
TTITLE4=Kitten On The Keys
TTITLE5=Varioations On Boogie
TTITLE6=Slow Coach
TTITLE7=Down The Trail Of Achin' Hearts
TTITLE8=Belle Of The Ball
TTITLE9=Blue Tango
TTITLE10=Americal Patrol Fox-Trot
TTITLE11=Moonlight Serenade
TTITLE12=Guitar Boogie
TTITLE13=Be Bop Rag
TTITLE14=Guitar And Piano Boogie
TTITLE15=Banjo Buster
TTITLE16=Big Family Trouble
TTITLE17=Don't Let The Stars Get In Your Eyes
EXTD=
EXTT0=
EXTT1=
EXTT2=
EXTT3=
EXTT4=
EXTT5=
EXTT6=
EXTT7=
EXTT8=
EXTT9=
EXTT10=
EXTT11=
EXTT12=
EXTT13=
EXTT14=
EXTT15=
EXTT16=
EXTT17=
PLAYORDER=
